<?xml version="1.0" encoding="UTF-8" standalone="no"?>
<!-- Created with Inkscape (http://www.inkscape.org/) -->

<svg
   xmlns:dc="http://purl.org/dc/elements/1.1/"
   xmlns:cc="http://creativecommons.org/ns#"
   xmlns:rdf="http://www.w3.org/1999/02/22-rdf-syntax-ns#"
   xmlns:svg="http://www.w3.org/2000/svg"
   xmlns="http://www.w3.org/2000/svg"
   xmlns:sodipodi="http://sodipodi.sourceforge.net/DTD/sodipodi-0.dtd"
   xmlns:inkscape="http://www.inkscape.org/namespaces/inkscape"
   id="svg3060"
   sodipodi:docname="icon.svg"
   viewBox="0 0 237.57156 202.18986"
   version="1.1"
   inkscape:version="0.48.4 r9939"
   width="100%"
   height="100%">
  <defs
     id="defs3026" />
  <sodipodi:namedview
     id="base"
     bordercolor="#666666"
     inkscape:pageshadow="2"
     inkscape:window-y="24"
     pagecolor="#ffffff"
     inkscape:window-height="744"
     inkscape:window-maximized="1"
     inkscape:zoom="1.979899"
     inkscape:window-x="49"
     showgrid="false"
     borderopacity="1.0"
     inkscape:current-layer="layer1"
     inkscape:cx="158.17894"
     inkscape:cy="123.46793"
     inkscape:window-width="1317"
     inkscape:pageopacity="0.0"
     inkscape:document-units="px"
     fit-margin-top="30"
     fit-margin-bottom="30"
     fit-margin-left="0"
     fit-margin-right="0" />
  <g
     id="layer1"
     inkscape:label="Ebene 1"
     inkscape:groupmode="layer"
     transform="translate(-226.92614,-434.12528)">
    <path
       id="path2830-1-3"
       style="fill:#dfdbd2;fill-opacity:1"
       d="m 375.7,485.86828 c 7.3944,0.14091 14.836,0.85188 22.406,2.0899 5.4879,0.89754 10.548,1.9547 15.213,3.1592 l 4.034,12.54 c 17.527,4.4544 29.671,11.2 38.785,21.337 5.2037,5.7878 7.978,11.176 8.3597,16.525 l -4.4715,0.82625 -1.6525,9.6234 -0.48603,-9.1859 -3.2564,0.58324 -1.5067,8.8457 -0.48602,-8.4569 -3.8396,0.72905 -1.3123,7.7278 -0.43743,-7.3876 -3.6938,0.68045 -1.1665,6.7072 -0.34022,-6.4156 -4.034,0.72904 -0.87485,5.2491 -0.29162,-5.0061 -3.8396,0.72904 -0.72904,4.277 -0.24301,-4.0826 -21.191,3.9854 17.108,8.1167 2.1385,-4.4714 -1.1665,4.9089 3.4994,1.7011 2.7218,-5.7837 -1.5067,6.3184 3.2078,1.5553 3.2078,-6.7072 -1.7983,7.3876 2.6732,1.2637 3.7424,-7.9223 -2.0899,8.6999 4.5201,2.1385 c -10.649,7.8082 -24.651,12.837 -44.229,16.039 -4.2677,0.698 -8.5574,1.2132 -12.831,1.5553 -0.41075,5.8917 -1.7856,11.347 -4.277,16.671 -5.097,10.892 -14.894,20.921 -23.524,24.107 -3.218,1.188 -6.0897,1.0081 -7.582,-0.48603 -1.057,-1.0582 -1.3277,-4.202 -0.82625,-7.5334 -2.2082,1.5566 -4.4524,2.8001 -6.61,3.5966 -3.218,1.188 -6.1383,1.0081 -7.6306,-0.48603 -1.4793,-1.4811 -1.409,-7.0478 0.14573,-11.519 2.2173,-6.3763 7.8798,-16.6 14.095,-25.711 -17.761,-2.8106 -34.191,-8.7674 -47.388,-17.594 -6.28,-4.2004 -14.249,-9.5228 -17.74,-11.859 -3.4914,-2.3362 -7.2248,-4.2609 -8.3111,-4.277 -2.7913,-0.0415 -10.733,5.5382 -33.05,23.281 -10.693,8.5008 -19.616,15.472 -19.83,15.504 -0.21385,0.0327 -0.38882,-19.992 -0.38882,-44.52 v -44.617 l 3.4994,3.1106 c 3.6366,3.2503 22.195,16.342 36.938,26.051 4.6826,3.0839 10,5.5893 11.81,5.5893 1.81,0 8.3116,-3.6744 14.484,-8.1653 22.084,-16.069 25.568,-18.043 38.056,-21.92 1.2852,-0.39898 2.5582,-0.7525 3.8396,-1.1179 l -4.1312,-12.831 c 14.828,-4.1842 29.439,-6.1637 44.277,-5.8809 z m 53.949,31.495 c -3.52,0 -6.367,2.6425 -6.367,5.8809 0,3.2385 2.8469,5.8809 6.367,5.8809 3.5201,0 6.367,-2.6425 6.367,-5.8809 0,-3.2384 -2.8469,-5.8809 -6.367,-5.8809 z"
       inkscape:connector-curvature="0" />
  </g>
  <metadata
     id="metadata3024">
    <rdf:RDF>
      <cc:Work>
        <dc:format>image/svg+xml</dc:format>
        <dc:type
           rdf:resource="http://purl.org/dc/dcmitype/StillImage" />
        <cc:license
           rdf:resource="http://creativecommons.org/licenses/publicdomain/" />
        <dc:publisher>
          <cc:Agent
             rdf:about="http://openclipart.org/">
            <dc:title>Openclipart</dc:title>
          </cc:Agent>
        </dc:publisher>
        <dc:title></dc:title>
        <dc:date>2010-12-30T21:39:47</dc:date>
        <dc:description />
        <dc:source>https://openclipart.org/detail/102685/fish-by-worker</dc:source>
        <dc:creator>
          <cc:Agent>
            <dc:title>worker</dc:title>
          </cc:Agent>
        </dc:creator>
        <dc:subject>
          <rdf:Bag>
            <rdf:li>angry</rdf:li>
            <rdf:li>animal</rdf:li>
            <rdf:li>fish</rdf:li>
            <rdf:li>tooth</rdf:li>
            <rdf:li>water</rdf:li>
          </rdf:Bag>
        </dc:subject>
      </cc:Work>
      <cc:License
         rdf:about="http://creativecommons.org/licenses/publicdomain/">
        <cc:permits
           rdf:resource="http://creativecommons.org/ns#Reproduction" />
        <cc:permits
           rdf:resource="http://creativecommons.org/ns#Distribution" />
        <cc:permits
           rdf:resource="http://creativecommons.org/ns#DerivativeWorks" />
      </cc:License>
    </rdf:RDF>
  </metadata>
</svg>
